<?xml version="1.0" encoding="utf-8"?>
<!-- Generator: Adobe Illustrator 22.1.0, SVG Export Plug-In . SVG Version: 6.00 Build 0)  -->
<svg version="1.1" id="Layer_1" xmlns="http://www.w3.org/2000/svg" xmlns:xlink="http://www.w3.org/1999/xlink" x="0px" y="0px"
	 width="190.2px" height="36.4px" viewBox="0 0 190.2 36.4" style="enable-background:new 0 0 190.2 36.4;" xml:space="preserve">
<style type="text/css">
	.st0{fill:#FFFFFF;}
</style>
<title>GameNestLogo</title>
<g>
	<path class="st0" d="M17.7,22.7l-0.8,4.7c-1,5.7-4.4,8.9-9.9,8.9s-7.8-3.3-6.8-8.9L3.5,8.9C4.5,3.3,7.9,0,13.4,0s7.8,3.3,6.8,8.9
		l-0.6,3.5h-5.3l0.7-3.8c0.4-2.5-0.5-3.5-2.3-3.5c-1.8,0-3.1,1-3.5,3.5L5.8,27.8c-0.4,2.5,0.5,3.5,2.3,3.5c1.8,0,3.1-0.9,3.5-3.5
		l0.9-5.1H17.7z"/>
	<path class="st0" d="M23.1,8.9c1-5.7,4.6-8.9,10.1-8.9s7.9,3.3,6.9,8.9l-3.3,18.5c-1,5.7-4.6,8.9-10.1,8.9s-7.9-3.3-6.9-8.9
		L23.1,8.9z M25.4,27.8c-0.4,2.5,0.5,3.5,2.3,3.5c1.8,0,3.1-1,3.5-3.5l3.4-19.2C35,6,34,5.1,32.3,5.1c-1.8,0-3.1,1-3.5,3.5
		L25.4,27.8z"/>
	<path class="st0" d="M42.2,15.6h10.2l-0.9,5.1H41.3L42.2,15.6z"/>
	<path class="st0" d="M56.9,8.9C57.9,3.3,61.5,0,67,0s7.9,3.3,6.9,8.9l-3.3,18.5c-1,5.7-4.6,8.9-10.1,8.9s-7.9-3.3-6.9-8.9L56.9,8.9
		z M59.2,27.8c-0.4,2.5,0.5,3.5,2.3,3.5c1.8,0,3.1-1,3.5-3.5l3.4-19.2c0.4-2.5-0.5-3.5-2.3-3.5c-1.8,0-3.1,1-3.5,3.5L59.2,27.8z"/>
	<path class="st0" d="M94,9.2l-0.8,4.6c-1,5.7-4.3,8.8-9.9,8.8h-2.6L78.3,36h-5.6L79,0.4h8.2C92.8,0.4,95,3.5,94,9.2z M83.7,5.5
		l-2.1,12h2.6c1.8,0,2.9-0.8,3.3-3.4l0.9-5.3c0.4-2.5-0.4-3.4-2.2-3.4H83.7z"/>
	<path class="st0" d="M113.7,25.6l8.3-25.2h7.8L123.4,36h-5.3l4.5-25.5L114.3,36H109l0.3-25.1L104.8,36H100l6.3-35.6h7.8L113.7,25.6
		z"/>
	<path class="st0" d="M131.8,8.9c1-5.7,4.6-8.9,10.1-8.9s7.9,3.3,6.9,8.9l-3.3,18.5c-1,5.7-4.6,8.9-10.1,8.9s-7.9-3.3-6.9-8.9
		L131.8,8.9z M134.1,27.8c-0.4,2.5,0.5,3.5,2.3,3.5c1.8,0,3.1-1,3.5-3.5l3.4-19.2c0.4-2.5-0.5-3.5-2.3-3.5c-1.8,0-3.1,1-3.5,3.5
		L134.1,27.8z"/>
	<path class="st0" d="M153.9,0.4h8.8c5.6,0,7.8,3.1,6.8,8.8l-3.2,18c-1,5.7-4.3,8.8-9.9,8.8h-8.8L153.9,0.4z M158.6,5.5l-4.5,25.4
		h3.1c1.8,0,3-0.9,3.5-3.5l3.3-18.5c0.4-2.5-0.5-3.5-2.2-3.5H158.6z"/>
	<path class="st0" d="M177.5,15.4h7.7l-0.9,5.1h-7.7l-1.8,10.4h9.7l-0.9,5.1h-15.2l6.3-35.6h15.2l-0.9,5.1h-9.7L177.5,15.4z"/>
</g>
</svg>
